G04*
G04 #@! TF.GenerationSoftware,Altium Limited,Altium Designer,18.1.6 (161)*
G04*
G04 Layer_Physical_Order=1*
G04 Layer_Color=255*
%FSLAX44Y44*%
%MOMM*%
G71*
G01*
G75*
%ADD10C,0.2540*%
%ADD12C,0.4000*%
%ADD20R,1.2700X1.9000*%
%ADD21R,2.2000X1.0000*%
%ADD22R,1.0000X4.0000*%
%ADD23R,1.9000X1.2700*%
%ADD45C,1.0000*%
%ADD46C,0.3810*%
G04:AMPARAMS|DCode=47|XSize=2.5mm|YSize=1.8mm|CornerRadius=0mm|HoleSize=0mm|Usage=FLASHONLY|Rotation=180.000|XOffset=0mm|YOffset=0mm|HoleType=Round|Shape=Octagon|*
%AMOCTAGOND47*
4,1,8,-1.2500,0.4500,-1.2500,-0.4500,-0.8000,-0.9000,0.8000,-0.9000,1.2500,-0.4500,1.2500,0.4500,0.8000,0.9000,-0.8000,0.9000,-1.2500,0.4500,0.0*
%
%ADD47OCTAGOND47*%

%ADD48P,1.7870X8X112.5*%
%ADD49R,1.6510X1.6510*%
%ADD50P,1.0824X8X22.5*%
%ADD51C,4.0000*%
G04:AMPARAMS|DCode=52|XSize=1.6mm|YSize=2mm|CornerRadius=0mm|HoleSize=0mm|Usage=FLASHONLY|Rotation=0.000|XOffset=0mm|YOffset=0mm|HoleType=Round|Shape=Octagon|*
%AMOCTAGOND52*
4,1,8,-0.4000,1.0000,0.4000,1.0000,0.8000,0.6000,0.8000,-0.6000,0.4000,-1.0000,-0.4000,-1.0000,-0.8000,-0.6000,-0.8000,0.6000,-0.4000,1.0000,0.0*
%
%ADD52OCTAGOND52*%

G04:AMPARAMS|DCode=53|XSize=1.5mm|YSize=2mm|CornerRadius=0mm|HoleSize=0mm|Usage=FLASHONLY|Rotation=0.000|XOffset=0mm|YOffset=0mm|HoleType=Round|Shape=Octagon|*
%AMOCTAGOND53*
4,1,8,-0.3750,1.0000,0.3750,1.0000,0.7500,0.6250,0.7500,-0.6250,0.3750,-1.0000,-0.3750,-1.0000,-0.7500,-0.6250,-0.7500,0.6250,-0.3750,1.0000,0.0*
%
%ADD53OCTAGOND53*%

%ADD54R,1.5000X2.5000*%
G04:AMPARAMS|DCode=55|XSize=2.5mm|YSize=1.5mm|CornerRadius=0mm|HoleSize=0mm|Usage=FLASHONLY|Rotation=90.000|XOffset=0mm|YOffset=0mm|HoleType=Round|Shape=Octagon|*
%AMOCTAGOND55*
4,1,8,0.3750,1.2500,-0.3750,1.2500,-0.7500,0.8750,-0.7500,-0.8750,-0.3750,-1.2500,0.3750,-1.2500,0.7500,-0.8750,0.7500,0.8750,0.3750,1.2500,0.0*
%
%ADD55OCTAGOND55*%

%ADD56C,1.5748*%
%ADD57P,7.5768X8X292.5*%
%ADD58R,1.6000X1.6000*%
%ADD59P,1.7318X8X112.5*%
%ADD60R,1.6000X1.6000*%
%ADD61P,1.7318X8X22.5*%
%ADD62C,1.8000*%
%ADD63R,1.8000X1.8000*%
%ADD64C,1.0000*%
G36*
X719391Y-255191D02*
X701979D01*
X701493Y-254017D01*
X717940Y-237570D01*
Y-221300D01*
X708112D01*
X705800Y-220996D01*
X703488Y-221300D01*
X680400D01*
X657312D01*
X655000Y-220996D01*
X652688Y-221300D01*
X642860D01*
Y-237570D01*
X659307Y-254017D01*
X658821Y-255191D01*
X-78021D01*
X-78507Y-254017D01*
X-62060Y-237570D01*
Y-221300D01*
X-71888D01*
X-74200Y-220996D01*
X-76512Y-221300D01*
X-99600D01*
X-122688D01*
X-125000Y-220996D01*
X-127312Y-221300D01*
X-137140D01*
Y-237570D01*
X-120693Y-254017D01*
X-121179Y-255191D01*
X-187961D01*
X-188447Y-254017D01*
X-184040Y-249610D01*
Y-246340D01*
X-199080D01*
X-214120D01*
Y-249610D01*
X-209713Y-254017D01*
X-210199Y-255191D01*
X-247961D01*
X-248447Y-254017D01*
X-244040Y-249610D01*
Y-246340D01*
X-259080D01*
Y-243840D01*
X-261580D01*
Y-232300D01*
X-268350D01*
X-272217Y-236167D01*
X-273391Y-235681D01*
Y-206999D01*
X-272217Y-206513D01*
X-268350Y-210380D01*
X-249810D01*
X-244040Y-204610D01*
Y-193070D01*
X-249810Y-187300D01*
X-268350D01*
X-272217Y-191167D01*
X-273391Y-190681D01*
Y62237D01*
X-272121Y62490D01*
X-272016Y62238D01*
X-270808Y60662D01*
X-184448Y-25698D01*
X-182873Y-26906D01*
X-182113Y-27221D01*
X-181038Y-27666D01*
X-179070Y-27925D01*
X-169877D01*
X-166688Y-31115D01*
X-155892D01*
X-150495Y-25717D01*
Y-14922D01*
X-155892Y-9525D01*
X-166688D01*
X-169877Y-12715D01*
X-175920D01*
X-257825Y69190D01*
Y120216D01*
X-256652Y120702D01*
X-238063Y102113D01*
X-238549Y100940D01*
X-238750D01*
Y76860D01*
X-220970D01*
Y100940D01*
X-225451D01*
X-225673Y102054D01*
X-226655Y103525D01*
X-226655Y103525D01*
X-250738Y127607D01*
Y142626D01*
X-249468Y142752D01*
X-249237Y141589D01*
X-248233Y140087D01*
X-217989Y109843D01*
Y60000D01*
X-217989Y60000D01*
X-217637Y58229D01*
X-216633Y56727D01*
X-199813Y39907D01*
X-199813Y39907D01*
X-198311Y38903D01*
X-196540Y38551D01*
X-161768D01*
X-161768Y38551D01*
X-159997Y38903D01*
X-158495Y39907D01*
X-135147Y63255D01*
X-135147Y63255D01*
X-134143Y64757D01*
X-133791Y66528D01*
X-133791Y66529D01*
Y76860D01*
X-129530D01*
Y100940D01*
X-147310D01*
Y76860D01*
X-143049D01*
Y68446D01*
X-163686Y47809D01*
X-194623D01*
X-208731Y61917D01*
Y111760D01*
X-208731Y111760D01*
X-209083Y113531D01*
X-210087Y115033D01*
X-210087Y115033D01*
X-240331Y145277D01*
Y155338D01*
X-239582Y155912D01*
X-238374Y157487D01*
X-237614Y159322D01*
X-237355Y161290D01*
X-237614Y163258D01*
X-238374Y165093D01*
X-239582Y166668D01*
X-241157Y167876D01*
X-242992Y168636D01*
X-244960Y168895D01*
X-246928Y168636D01*
X-248762Y167876D01*
X-249468Y167335D01*
X-250738Y167961D01*
Y173383D01*
X-234343Y189778D01*
X-231486D01*
X-230838Y188932D01*
X-229263Y187724D01*
X-227428Y186964D01*
X-225460Y186705D01*
X-223492Y186964D01*
X-221658Y187724D01*
X-220082Y188932D01*
X-218874Y190508D01*
X-218114Y192342D01*
X-217855Y194310D01*
X-218114Y196278D01*
X-218393Y196952D01*
X-217316Y197671D01*
X-215885Y196240D01*
Y174370D01*
X-224338Y165918D01*
X-225546Y164342D01*
X-226306Y162508D01*
X-226565Y160540D01*
X-226306Y158572D01*
X-225546Y156737D01*
X-224338Y155162D01*
X-222763Y153954D01*
X-220928Y153194D01*
X-218960Y152935D01*
X-216992Y153194D01*
X-215158Y153954D01*
X-213582Y155162D01*
X-202902Y165842D01*
X-201694Y167417D01*
X-201379Y168177D01*
X-200934Y169252D01*
X-200675Y171220D01*
Y199390D01*
X-200934Y201358D01*
X-201694Y203193D01*
X-202902Y204768D01*
X-213697Y215563D01*
X-215273Y216771D01*
X-217107Y217531D01*
X-219075Y217790D01*
X-229885D01*
Y257908D01*
X-228615Y258096D01*
X-227625Y254833D01*
X-225532Y250917D01*
X-222715Y247485D01*
X-221025Y246097D01*
X-221373Y244876D01*
X-221678Y244836D01*
X-223512Y244076D01*
X-225088Y242868D01*
X-226296Y241292D01*
X-227056Y239458D01*
X-227315Y237490D01*
X-227056Y235522D01*
X-226296Y233687D01*
X-225088Y232112D01*
X-223512Y230904D01*
X-221678Y230144D01*
X-219710Y229885D01*
X-218774Y230008D01*
X-191319Y202553D01*
Y184785D01*
X-197485D01*
Y163195D01*
X-175895D01*
Y184785D01*
X-182061D01*
Y204470D01*
X-182061Y204470D01*
X-182413Y206241D01*
X-183417Y207743D01*
X-183417Y207743D01*
X-212228Y236554D01*
X-212105Y237490D01*
X-212364Y239458D01*
X-212780Y240463D01*
X-211837Y241504D01*
X-211119Y241286D01*
X-209200Y241097D01*
Y263500D01*
X-206700D01*
Y266000D01*
X-184297D01*
X-184486Y267919D01*
X-185775Y272167D01*
X-187868Y276083D01*
X-190685Y279515D01*
X-194117Y282332D01*
X-198033Y284425D01*
X-198263Y284495D01*
X-198075Y285765D01*
X-24130D01*
X-22162Y286024D01*
X-20327Y286784D01*
X-18752Y287992D01*
X-9550Y297195D01*
X17195D01*
X20130Y294260D01*
X30670D01*
X35940Y299530D01*
Y310070D01*
X30670Y315340D01*
X30943Y316497D01*
X53987Y339541D01*
X350971D01*
Y315340D01*
X350330D01*
X345060Y310070D01*
Y299530D01*
X350330Y294260D01*
X359594D01*
X365027Y288827D01*
X365027Y288827D01*
X366529Y287823D01*
X368300Y287471D01*
X368300Y287471D01*
X371602D01*
X372088Y286298D01*
X370460Y284670D01*
Y274130D01*
X375730Y268860D01*
X386270D01*
X387898Y270488D01*
X389071Y270002D01*
Y267970D01*
X389071Y267970D01*
X389423Y266199D01*
X390427Y264697D01*
X419238Y235886D01*
X419115Y234950D01*
X419374Y232982D01*
X420134Y231147D01*
X421342Y229572D01*
X422918Y228364D01*
X424752Y227604D01*
X426720Y227345D01*
X428688Y227604D01*
X430522Y228364D01*
X432098Y229572D01*
X433306Y231147D01*
X434066Y232982D01*
X434325Y234950D01*
X434066Y236918D01*
X433306Y238752D01*
X432098Y240328D01*
X430522Y241536D01*
X428688Y242296D01*
X426720Y242555D01*
X425784Y242432D01*
X400270Y267946D01*
X401152Y268860D01*
X410394D01*
X428527Y250727D01*
X428527Y250727D01*
X430029Y249723D01*
X431800Y249371D01*
X431800Y249371D01*
X553073D01*
X569850Y232594D01*
Y223330D01*
X575120Y218060D01*
X585660D01*
X587288Y219688D01*
X588461Y219202D01*
Y99440D01*
X569850D01*
Y84906D01*
X563147Y78203D01*
X562143Y76701D01*
X561791Y74930D01*
X561791Y74930D01*
Y48907D01*
X550723Y37839D01*
X141160D01*
X141160Y37839D01*
X139389Y37487D01*
X137887Y36483D01*
X137887Y36483D01*
X123727Y22323D01*
X122723Y20821D01*
X122371Y19050D01*
X122371Y19050D01*
Y15040D01*
X121980D01*
X116960Y10020D01*
Y-10020D01*
X121980Y-15040D01*
X132020D01*
X137040Y-10020D01*
Y10020D01*
X132020Y15040D01*
X131629D01*
Y17133D01*
X143077Y28581D01*
X184205D01*
X184691Y27408D01*
X174527Y17243D01*
X173523Y15741D01*
X173384Y15040D01*
X172780D01*
X167760Y10020D01*
Y-10020D01*
X170988Y-13248D01*
X170502Y-14421D01*
X168287D01*
X162440Y-8574D01*
Y10020D01*
X157420Y15040D01*
X147380D01*
X142360Y10020D01*
Y-10020D01*
X147380Y-15040D01*
X155814D01*
X163097Y-22323D01*
X163097Y-22323D01*
X164599Y-23327D01*
X164395Y-24581D01*
X-45073D01*
X-84271Y14617D01*
Y109220D01*
X-84623Y110991D01*
X-85627Y112493D01*
X-85627Y112493D01*
X-99597Y126463D01*
X-101099Y127467D01*
X-102870Y127819D01*
X-102870Y127819D01*
X-150495D01*
Y128588D01*
X-155892Y133985D01*
X-166688D01*
X-172085Y128588D01*
Y117793D01*
X-166688Y112395D01*
X-155892D01*
X-150495Y117793D01*
Y118561D01*
X-104787D01*
X-93529Y107303D01*
Y12700D01*
X-93529Y12700D01*
X-93177Y10929D01*
X-92173Y9427D01*
X-50263Y-32483D01*
X-50263Y-32483D01*
X-48761Y-33487D01*
X-46990Y-33839D01*
X588461D01*
Y-116460D01*
X569850D01*
Y-137540D01*
X588461D01*
Y-143002D01*
X587288Y-143488D01*
X585660Y-141860D01*
X575120D01*
X569850Y-147130D01*
Y-157670D01*
X575120Y-162940D01*
X585660D01*
X587288Y-161312D01*
X588461Y-161798D01*
Y-163183D01*
X584384Y-167260D01*
X575120D01*
X569850Y-172530D01*
Y-183070D01*
X575120Y-188340D01*
X585660D01*
X590930Y-183070D01*
Y-173806D01*
X596363Y-168373D01*
X596363Y-168373D01*
X597367Y-166871D01*
X597719Y-165100D01*
X597719Y-165100D01*
Y-161798D01*
X598892Y-161312D01*
X600520Y-162940D01*
X611060D01*
X616330Y-157670D01*
Y-147130D01*
X611060Y-141860D01*
X600520D01*
X598892Y-143488D01*
X597719Y-143002D01*
Y-136398D01*
X598892Y-135912D01*
X600520Y-137540D01*
X611060D01*
X616330Y-132270D01*
Y-121730D01*
X611060Y-116460D01*
X600520D01*
X598892Y-118088D01*
X597719Y-117602D01*
Y-27940D01*
X597719Y-27940D01*
X597719Y-27940D01*
Y-22098D01*
X598892Y-21612D01*
X600520Y-23240D01*
X603290D01*
Y-12700D01*
Y-2160D01*
X600520D01*
X598892Y-3788D01*
X597719Y-3302D01*
Y3302D01*
X598892Y3788D01*
X600520Y2160D01*
X603290D01*
Y12700D01*
Y23240D01*
X600520D01*
X598892Y21612D01*
X597719Y22098D01*
Y28702D01*
X598892Y29188D01*
X600520Y27560D01*
X603290D01*
Y38100D01*
X608290D01*
Y27560D01*
X611060D01*
X614364Y30864D01*
X615909Y30612D01*
X616487Y29747D01*
X653231Y-6997D01*
Y-11440D01*
X645820D01*
Y-29220D01*
X669900D01*
Y-11440D01*
X662489D01*
Y-5080D01*
X662137Y-3309D01*
X661133Y-1807D01*
X661133Y-1807D01*
X624389Y34937D01*
Y74930D01*
X624037Y76701D01*
X623033Y78203D01*
X623033Y78203D01*
X616330Y84906D01*
Y94170D01*
X611060Y99440D01*
X610419D01*
Y183503D01*
X625573Y198657D01*
X625573Y198657D01*
X626577Y200159D01*
X626929Y201930D01*
X626929Y201930D01*
Y337820D01*
X626577Y339591D01*
X625573Y341093D01*
X625573Y341093D01*
X619223Y347443D01*
X617721Y348447D01*
X615950Y348799D01*
X615950Y348799D01*
X591820D01*
X591820Y348799D01*
X591820Y348799D01*
X52070D01*
X50299Y348447D01*
X48797Y347443D01*
X48797Y347443D01*
X22127Y320773D01*
X21123Y319271D01*
X20771Y317500D01*
X20771Y317500D01*
Y315340D01*
X20130D01*
X17195Y312405D01*
X-12700D01*
X-14668Y312146D01*
X-15743Y311701D01*
X-16502Y311386D01*
X-18078Y310178D01*
X-27280Y300975D01*
X-71010D01*
Y323960D01*
X-72400D01*
Y324460D01*
X-90180D01*
Y323960D01*
X-94090D01*
Y300975D01*
X-105400D01*
Y305062D01*
X-104220Y306600D01*
X-103057Y309408D01*
X-102661Y312420D01*
X-103057Y315432D01*
X-104220Y318240D01*
X-105400Y319778D01*
Y324460D01*
X-123180D01*
Y319804D01*
X-124380Y318240D01*
X-125543Y315432D01*
X-125940Y312420D01*
X-125543Y309408D01*
X-124380Y306600D01*
X-123180Y305036D01*
Y300975D01*
X-150356D01*
X-150842Y302148D01*
X-149060Y303930D01*
Y318470D01*
X-154290Y323700D01*
X-149060Y328930D01*
Y343470D01*
X-154330Y348740D01*
X-164870D01*
X-169600Y344010D01*
X-174330Y348740D01*
X-184870D01*
X-190140Y343470D01*
Y328930D01*
X-185683Y324473D01*
X-185648Y322712D01*
X-189640Y318720D01*
Y313700D01*
X-179600D01*
Y308700D01*
X-189640D01*
Y303680D01*
X-188108Y302148D01*
X-188594Y300975D01*
X-219710D01*
X-221678Y300716D01*
X-223512Y299956D01*
X-225088Y298748D01*
X-240123Y283712D01*
X-241326Y284305D01*
X-241315Y284387D01*
X-241574Y286356D01*
X-242334Y288190D01*
X-243542Y289765D01*
X-245117Y290974D01*
X-246420Y291513D01*
Y284387D01*
Y277262D01*
X-246141Y277377D01*
X-244977Y276485D01*
X-245095Y275590D01*
Y217790D01*
X-249555D01*
X-251523Y217531D01*
X-253358Y216771D01*
X-254933Y215563D01*
X-270808Y199688D01*
X-272016Y198113D01*
X-272121Y197860D01*
X-273391Y198113D01*
Y349391D01*
X-273050Y350520D01*
X-272121Y350520D01*
X-236232D01*
Y370677D01*
X-272121D01*
X-273050Y370677D01*
X-273391Y371806D01*
Y407591D01*
X-209081D01*
X-209019Y406321D01*
X-211119Y406114D01*
X-215367Y404825D01*
X-219283Y402732D01*
X-222715Y399915D01*
X-225532Y396483D01*
X-227625Y392567D01*
X-228914Y388319D01*
X-229103Y386400D01*
X-184297D01*
X-184486Y388319D01*
X-185775Y392567D01*
X-187868Y396483D01*
X-190685Y399915D01*
X-194117Y402732D01*
X-198033Y404825D01*
X-202281Y406114D01*
X-204381Y406321D01*
X-204319Y407591D01*
X-121179D01*
X-120693Y406417D01*
X-137140Y389970D01*
Y373700D01*
X-127312D01*
X-125000Y373396D01*
X-122688Y373700D01*
X-99600D01*
X-62060D01*
Y389970D01*
X-78507Y406417D01*
X-78021Y407591D01*
X658821D01*
X659307Y406417D01*
X642860Y389970D01*
Y373700D01*
X652688D01*
X655000Y373396D01*
X657312Y373700D01*
X680400D01*
X717940D01*
Y389970D01*
X701493Y406417D01*
X701979Y407591D01*
X719391D01*
X719391Y-255191D01*
D02*
G37*
G36*
X617671Y334977D02*
Y203847D01*
X602517Y188693D01*
X601513Y187191D01*
X601161Y185420D01*
X601161Y185420D01*
Y99440D01*
X600520D01*
X598892Y97812D01*
X597719Y98298D01*
Y219202D01*
X598892Y219688D01*
X600520Y218060D01*
X603290D01*
Y228600D01*
Y239140D01*
X600520D01*
X598892Y237512D01*
X597719Y237998D01*
Y244602D01*
X598892Y245088D01*
X600520Y243460D01*
X611060D01*
X616330Y248730D01*
Y259270D01*
X611060Y264540D01*
X604216D01*
X603730Y265713D01*
X606876Y268860D01*
X611060D01*
X616330Y274130D01*
Y284670D01*
X611060Y289940D01*
X600520D01*
X598732Y288152D01*
X597559Y288638D01*
Y295562D01*
X598732Y296048D01*
X600520Y294260D01*
X611060D01*
X616330Y299530D01*
Y310070D01*
X611060Y315340D01*
X600520D01*
X598732Y313552D01*
X597559Y314038D01*
Y320962D01*
X598732Y321448D01*
X600520Y319660D01*
X603290D01*
Y330200D01*
X605790D01*
Y332700D01*
X616330D01*
Y334167D01*
X617600Y335007D01*
X617671Y334977D01*
D02*
G37*
G36*
X569850Y-8706D02*
Y-17970D01*
X575120Y-23240D01*
X585660D01*
X587288Y-21612D01*
X588461Y-22098D01*
Y-24581D01*
X207829D01*
Y-15040D01*
X208220D01*
X213240Y-10020D01*
Y10020D01*
X209029Y14231D01*
X209555Y15501D01*
X222245D01*
X222771Y14231D01*
X218560Y10020D01*
Y-10020D01*
X223580Y-15040D01*
X233620D01*
X238640Y-10020D01*
Y10020D01*
X234429Y14231D01*
X234955Y15501D01*
X247645D01*
X248171Y14231D01*
X243960Y10020D01*
Y2500D01*
X254000D01*
X264040D01*
Y10020D01*
X259829Y14231D01*
X260355Y15501D01*
X273045D01*
X273571Y14231D01*
X269360Y10020D01*
Y-10020D01*
X274380Y-15040D01*
X284420D01*
X289440Y-10020D01*
Y10020D01*
X285229Y14231D01*
X285755Y15501D01*
X298445D01*
X298971Y14231D01*
X294760Y10020D01*
Y-10020D01*
X299780Y-15040D01*
X309820D01*
X314840Y-10020D01*
Y10020D01*
X310629Y14231D01*
X311155Y15501D01*
X323845D01*
X324371Y14231D01*
X320160Y10020D01*
Y-10020D01*
X325180Y-15040D01*
X335220D01*
X340240Y-10020D01*
Y10020D01*
X336029Y14231D01*
X336555Y15501D01*
X349245D01*
X349771Y14231D01*
X345560Y10020D01*
Y-10020D01*
X350580Y-15040D01*
X360620D01*
X365640Y-10020D01*
Y10020D01*
X361429Y14231D01*
X361955Y15501D01*
X374645D01*
X375171Y14231D01*
X370960Y10020D01*
Y-10020D01*
X375980Y-15040D01*
X386020D01*
X391040Y-10020D01*
Y10020D01*
X386829Y14231D01*
X387355Y15501D01*
X400045D01*
X400571Y14231D01*
X396360Y10020D01*
Y-10020D01*
X401380Y-15040D01*
X411420D01*
X416440Y-10020D01*
Y10020D01*
X412229Y14231D01*
X412755Y15501D01*
X425445D01*
X425971Y14231D01*
X421760Y10020D01*
Y-10020D01*
X426780Y-15040D01*
X436820D01*
X441840Y-10020D01*
Y10020D01*
X437629Y14231D01*
X438155Y15501D01*
X450845D01*
X451371Y14231D01*
X447160Y10020D01*
Y-10020D01*
X452180Y-15040D01*
X462220D01*
X467240Y-10020D01*
Y10020D01*
X463029Y14231D01*
X463555Y15501D01*
X476245D01*
X476771Y14231D01*
X472560Y10020D01*
Y-10020D01*
X477580Y-15040D01*
X487620D01*
X492640Y-10020D01*
Y10020D01*
X488429Y14231D01*
X488955Y15501D01*
X545643D01*
X569850Y-8706D01*
D02*
G37*
%LPC*%
G36*
X-184297Y381400D02*
X-204200D01*
Y361497D01*
X-202281Y361686D01*
X-198033Y362975D01*
X-194117Y365068D01*
X-190685Y367885D01*
X-187868Y371317D01*
X-185775Y375233D01*
X-184486Y379481D01*
X-184297Y381400D01*
D02*
G37*
G36*
X-209200D02*
X-229103D01*
X-228914Y379481D01*
X-227625Y375233D01*
X-225532Y371317D01*
X-222715Y367885D01*
X-219283Y365068D01*
X-215367Y362975D01*
X-211119Y361686D01*
X-209200Y361497D01*
Y381400D01*
D02*
G37*
G36*
X705800Y369004D02*
X703488Y368700D01*
X682900D01*
Y333660D01*
X699170D01*
X717940Y352430D01*
Y368700D01*
X708112D01*
X705800Y369004D01*
D02*
G37*
G36*
X655000D02*
X652688Y368700D01*
X642860D01*
Y352430D01*
X661630Y333660D01*
X677900D01*
Y343488D01*
X678204Y345800D01*
X677900Y348112D01*
Y368700D01*
X657312D01*
X655000Y369004D01*
D02*
G37*
G36*
X-74200Y369004D02*
X-76512Y368700D01*
X-97100D01*
Y333660D01*
X-80830D01*
X-62060Y352430D01*
Y368700D01*
X-71888D01*
X-74200Y369004D01*
D02*
G37*
G36*
X-125000D02*
X-127312Y368700D01*
X-137140D01*
Y352430D01*
X-118370Y333660D01*
X-102100D01*
Y343488D01*
X-101796Y345800D01*
X-102100Y348112D01*
Y368700D01*
X-122688D01*
X-125000Y369004D01*
D02*
G37*
G36*
X253570Y331390D02*
X226490D01*
Y316310D01*
X253570D01*
Y331390D01*
D02*
G37*
G36*
X106870Y315340D02*
X96330D01*
X91060Y310070D01*
Y299530D01*
X96330Y294260D01*
X106870D01*
X112140Y299530D01*
Y310070D01*
X106870Y315340D01*
D02*
G37*
G36*
X81470D02*
X70930D01*
X65660Y310070D01*
Y299530D01*
X70930Y294260D01*
X81470D01*
X86740Y299530D01*
Y310070D01*
X81470Y315340D01*
D02*
G37*
G36*
X56070D02*
X45530D01*
X40260Y310070D01*
Y299530D01*
X45530Y294260D01*
X56070D01*
X61340Y299530D01*
Y310070D01*
X56070Y315340D01*
D02*
G37*
G36*
X137540D02*
X116460D01*
Y300806D01*
X111027Y295373D01*
X110023Y293871D01*
X109671Y292100D01*
X109671Y292100D01*
Y288798D01*
X108498Y288312D01*
X106870Y289940D01*
X96330D01*
X91060Y284670D01*
Y274130D01*
X96330Y268860D01*
X105578D01*
X106104Y267590D01*
X23483Y184969D01*
X11430D01*
X11430Y184969D01*
X9659Y184617D01*
X8157Y183613D01*
X8157Y183613D01*
X-3273Y172183D01*
X-4277Y170681D01*
X-4629Y168910D01*
X-4629Y168910D01*
Y167440D01*
X-5020D01*
X-10040Y162420D01*
Y142380D01*
X-5020Y137360D01*
X5020D01*
X10040Y142380D01*
Y162420D01*
X5048Y167412D01*
X13347Y175711D01*
X21814D01*
X22300Y174538D01*
X22127Y174364D01*
X21123Y172862D01*
X20771Y171091D01*
X20771Y171091D01*
Y167440D01*
X20380D01*
X15360Y162420D01*
Y142380D01*
X20380Y137360D01*
X30420D01*
X35440Y142380D01*
Y162420D01*
X30420Y167440D01*
X30029D01*
Y169174D01*
X129715Y268860D01*
X132270D01*
X137540Y274130D01*
Y284670D01*
X132270Y289940D01*
X121730D01*
X120102Y288312D01*
X118929Y288798D01*
Y290183D01*
X123006Y294260D01*
X137540D01*
Y315340D01*
D02*
G37*
G36*
X-251420Y291513D02*
X-252722Y290974D01*
X-254298Y289765D01*
X-255506Y288190D01*
X-256046Y286887D01*
X-251420D01*
Y291513D01*
D02*
G37*
G36*
X360870Y289940D02*
X358100D01*
Y281900D01*
X366140D01*
Y284670D01*
X360870Y289940D01*
D02*
G37*
G36*
X353100D02*
X350330D01*
X345060Y284670D01*
Y281900D01*
X353100D01*
Y289940D01*
D02*
G37*
G36*
X30670D02*
X27900D01*
Y281900D01*
X35940D01*
Y284670D01*
X30670Y289940D01*
D02*
G37*
G36*
X22900D02*
X20130D01*
X14860Y284670D01*
Y281900D01*
X22900D01*
Y289940D01*
D02*
G37*
G36*
X-251420Y281887D02*
X-256046D01*
X-255506Y280585D01*
X-254298Y279010D01*
X-252722Y277801D01*
X-251420Y277262D01*
Y281887D01*
D02*
G37*
G36*
X366140Y276900D02*
X358100D01*
Y268860D01*
X360870D01*
X366140Y274130D01*
Y276900D01*
D02*
G37*
G36*
X353100D02*
X345060D01*
Y274130D01*
X350330Y268860D01*
X353100D01*
Y276900D01*
D02*
G37*
G36*
X81470Y289940D02*
X70930D01*
X65660Y284670D01*
Y274130D01*
X70930Y268860D01*
X81470D01*
X86740Y274130D01*
Y284670D01*
X81470Y289940D01*
D02*
G37*
G36*
X56070D02*
X45530D01*
X40260Y284670D01*
Y274130D01*
X45530Y268860D01*
X56070D01*
X61340Y274130D01*
Y284670D01*
X56070Y289940D01*
D02*
G37*
G36*
X35940Y276900D02*
X27900D01*
Y268860D01*
X30670D01*
X35940Y274130D01*
Y276900D01*
D02*
G37*
G36*
X22900D02*
X14860D01*
Y274130D01*
X20130Y268860D01*
X22900D01*
Y276900D01*
D02*
G37*
G36*
X264080Y304480D02*
X249000D01*
Y259400D01*
X264080D01*
Y304480D01*
D02*
G37*
G36*
X231060D02*
X215980D01*
Y259400D01*
X231060D01*
Y304480D01*
D02*
G37*
G36*
X-184297Y261000D02*
X-204200D01*
Y241097D01*
X-202281Y241286D01*
X-198033Y242575D01*
X-194117Y244668D01*
X-190685Y247485D01*
X-187868Y250917D01*
X-185775Y254833D01*
X-184486Y259081D01*
X-184297Y261000D01*
D02*
G37*
G36*
X250800Y233600D02*
X243260D01*
X240030Y230370D01*
X236800Y233600D01*
X229260D01*
X225490Y229830D01*
Y222290D01*
X229260Y218520D01*
X234024D01*
X260237Y192307D01*
X260237Y192307D01*
X263447Y189097D01*
X263447Y189097D01*
X264949Y188093D01*
X266720Y187741D01*
X267608Y187917D01*
X268689Y186837D01*
X268512Y185949D01*
X268864Y184178D01*
X269868Y182676D01*
X274771Y177773D01*
Y167440D01*
X274380D01*
X269360Y162420D01*
Y142380D01*
X274380Y137360D01*
X284420D01*
X289440Y142380D01*
Y162420D01*
X284420Y167440D01*
X284029D01*
Y179690D01*
X283677Y181461D01*
X282673Y182963D01*
X282673Y182963D01*
X282348Y183288D01*
X282348Y183288D01*
X279687Y185949D01*
X285606Y191868D01*
X286353Y192985D01*
X287799Y193335D01*
X300171Y180963D01*
Y167440D01*
X299780D01*
X294760Y162420D01*
Y142380D01*
X299780Y137360D01*
X309820D01*
X314840Y142380D01*
Y162420D01*
X309820Y167440D01*
X309429D01*
Y182880D01*
X309429Y182880D01*
X309077Y184651D01*
X308073Y186153D01*
X264893Y229333D01*
X263391Y230337D01*
X261620Y230689D01*
X261620Y230689D01*
X253711D01*
X250800Y233600D01*
D02*
G37*
G36*
X233620Y167440D02*
X231100D01*
Y154900D01*
X238640D01*
Y162420D01*
X233620Y167440D01*
D02*
G37*
G36*
X226100D02*
X223580D01*
X218560Y162420D01*
Y154900D01*
X226100D01*
Y167440D01*
D02*
G37*
G36*
X-155892Y159385D02*
X-166688D01*
X-172085Y153988D01*
Y143193D01*
X-166688Y137795D01*
X-155892D01*
X-150495Y143193D01*
Y153988D01*
X-155892Y159385D01*
D02*
G37*
G36*
X-181292D02*
X-192087D01*
X-197485Y153988D01*
Y143193D01*
X-192087Y137795D01*
X-181292D01*
X-175895Y143193D01*
Y153988D01*
X-181292Y159385D01*
D02*
G37*
G36*
X487620Y167440D02*
X477580D01*
X472560Y162420D01*
Y142380D01*
X477580Y137360D01*
X487620D01*
X492640Y142380D01*
Y162420D01*
X487620Y167440D01*
D02*
G37*
G36*
X462220D02*
X452180D01*
X447160Y162420D01*
Y142380D01*
X452180Y137360D01*
X462220D01*
X467240Y142380D01*
Y162420D01*
X462220Y167440D01*
D02*
G37*
G36*
X436820D02*
X426780D01*
X421760Y162420D01*
Y142380D01*
X426780Y137360D01*
X436820D01*
X441840Y142380D01*
Y162420D01*
X436820Y167440D01*
D02*
G37*
G36*
X411420D02*
X401380D01*
X396360Y162420D01*
Y142380D01*
X401380Y137360D01*
X411420D01*
X416440Y142380D01*
Y162420D01*
X411420Y167440D01*
D02*
G37*
G36*
X386020D02*
X375980D01*
X370960Y162420D01*
Y142380D01*
X375980Y137360D01*
X386020D01*
X391040Y142380D01*
Y162420D01*
X386020Y167440D01*
D02*
G37*
G36*
X360620D02*
X350580D01*
X345560Y162420D01*
Y142380D01*
X350580Y137360D01*
X360620D01*
X365640Y142380D01*
Y162420D01*
X360620Y167440D01*
D02*
G37*
G36*
X335220D02*
X325180D01*
X320160Y162420D01*
Y142380D01*
X325180Y137360D01*
X335220D01*
X340240Y142380D01*
Y162420D01*
X335220Y167440D01*
D02*
G37*
G36*
X259020D02*
X248980D01*
X243960Y162420D01*
Y142380D01*
X248980Y137360D01*
X259020D01*
X264040Y142380D01*
Y162420D01*
X259020Y167440D01*
D02*
G37*
G36*
X238640Y149900D02*
X231100D01*
Y137360D01*
X233620D01*
X238640Y142380D01*
Y149900D01*
D02*
G37*
G36*
X226100D02*
X218560D01*
Y142380D01*
X223580Y137360D01*
X226100D01*
Y149900D01*
D02*
G37*
G36*
X208220Y167440D02*
X198180D01*
X193160Y162420D01*
Y142380D01*
X198180Y137360D01*
X208220D01*
X213240Y142380D01*
Y162420D01*
X208220Y167440D01*
D02*
G37*
G36*
X182820D02*
X172780D01*
X167760Y162420D01*
Y142380D01*
X172780Y137360D01*
X182820D01*
X187840Y142380D01*
Y162420D01*
X182820Y167440D01*
D02*
G37*
G36*
X157420D02*
X147380D01*
X142360Y162420D01*
Y142380D01*
X147380Y137360D01*
X157420D01*
X162440Y142380D01*
Y162420D01*
X157420Y167440D01*
D02*
G37*
G36*
X132020D02*
X121980D01*
X116960Y162420D01*
Y142380D01*
X121980Y137360D01*
X132020D01*
X137040Y142380D01*
Y162420D01*
X132020Y167440D01*
D02*
G37*
G36*
X106620D02*
X96580D01*
X91560Y162420D01*
Y142380D01*
X96580Y137360D01*
X106620D01*
X111640Y142380D01*
Y162420D01*
X106620Y167440D01*
D02*
G37*
G36*
X81220D02*
X71180D01*
X66160Y162420D01*
Y142380D01*
X71180Y137360D01*
X81220D01*
X86240Y142380D01*
Y162420D01*
X81220Y167440D01*
D02*
G37*
G36*
X55820D02*
X45780D01*
X40760Y162420D01*
Y142380D01*
X45780Y137360D01*
X55820D01*
X60840Y142380D01*
Y162420D01*
X55820Y167440D01*
D02*
G37*
G36*
X157440Y134126D02*
Y129500D01*
X162066D01*
X161526Y130802D01*
X160318Y132378D01*
X158743Y133586D01*
X157440Y134126D01*
D02*
G37*
G36*
X152440D02*
X151138Y133586D01*
X149562Y132378D01*
X148354Y130802D01*
X147814Y129500D01*
X152440D01*
Y134126D01*
D02*
G37*
G36*
X162066Y124500D02*
X157440D01*
Y119874D01*
X158743Y120414D01*
X160318Y121622D01*
X161526Y123197D01*
X162066Y124500D01*
D02*
G37*
G36*
X152440D02*
X147814D01*
X148354Y123197D01*
X149562Y121622D01*
X151138Y120414D01*
X152440Y119874D01*
Y124500D01*
D02*
G37*
G36*
X-96530Y100940D02*
X-114310D01*
Y95949D01*
X-115449Y95388D01*
X-115577Y95486D01*
X-117412Y96246D01*
X-119380Y96505D01*
X-121348Y96246D01*
X-123182Y95486D01*
X-124758Y94278D01*
X-125966Y92703D01*
X-126726Y90868D01*
X-126985Y88900D01*
X-126726Y86932D01*
X-125966Y85098D01*
X-124758Y83522D01*
X-123182Y82314D01*
X-121348Y81554D01*
X-119380Y81295D01*
X-117412Y81554D01*
X-115577Y82314D01*
X-115449Y82412D01*
X-114310Y81851D01*
Y76860D01*
X-96530D01*
Y100940D01*
D02*
G37*
G36*
X-181292Y133985D02*
X-192087D01*
X-197485Y128588D01*
Y117793D01*
X-192087Y112395D01*
X-191319D01*
Y109220D01*
X-191319Y109220D01*
X-190967Y107449D01*
X-189963Y105947D01*
X-183699Y99683D01*
Y85962D01*
X-184448Y85388D01*
X-185656Y83813D01*
X-186416Y81978D01*
X-186675Y80010D01*
X-186416Y78042D01*
X-185656Y76207D01*
X-185304Y75749D01*
X-185931Y74479D01*
X-189853D01*
X-190964Y75590D01*
X-190438Y76860D01*
X-187970D01*
Y100940D01*
X-205750D01*
Y76860D01*
X-201489D01*
Y74940D01*
X-201489Y74940D01*
X-201137Y73169D01*
X-200133Y71667D01*
X-195043Y66577D01*
X-195043Y66577D01*
X-193541Y65573D01*
X-191770Y65221D01*
X-191770Y65221D01*
X-172720D01*
X-172720Y65221D01*
X-170949Y65573D01*
X-169447Y66577D01*
X-163496Y72528D01*
X-162560Y72405D01*
X-160592Y72664D01*
X-158757Y73424D01*
X-157182Y74632D01*
X-155974Y76207D01*
X-155214Y78042D01*
X-154955Y80010D01*
X-155214Y81978D01*
X-155974Y83813D01*
X-157182Y85388D01*
X-158757Y86596D01*
X-160592Y87356D01*
X-162560Y87615D01*
X-164528Y87356D01*
X-166362Y86596D01*
X-167938Y85388D01*
X-169146Y83813D01*
X-169906Y81978D01*
X-170154Y80090D01*
X-170175Y80004D01*
X-170238Y79964D01*
X-170307Y79967D01*
X-171548Y80638D01*
X-171724Y81978D01*
X-172484Y83813D01*
X-173692Y85388D01*
X-174441Y85962D01*
Y101600D01*
X-174441Y101600D01*
X-174793Y103371D01*
X-175797Y104873D01*
X-182049Y111125D01*
X-182031Y112395D01*
X-181292D01*
X-175895Y117793D01*
Y128588D01*
X-181292Y133985D01*
D02*
G37*
G36*
X165100Y86345D02*
X163132Y86086D01*
X161297Y85326D01*
X159722Y84118D01*
X158514Y82542D01*
X157754Y80708D01*
X157495Y78740D01*
X157754Y76772D01*
X158514Y74938D01*
X159722Y73362D01*
X161297Y72154D01*
X163132Y71394D01*
X165100Y71135D01*
X167068Y71394D01*
X168902Y72154D01*
X170478Y73362D01*
X171052Y74111D01*
X269863D01*
X280808Y63166D01*
X280685Y62230D01*
X280944Y60262D01*
X281704Y58428D01*
X282912Y56852D01*
X284487Y55644D01*
X286322Y54884D01*
X288290Y54625D01*
X290258Y54884D01*
X292092Y55644D01*
X293668Y56852D01*
X294876Y58428D01*
X295636Y60262D01*
X295895Y62230D01*
X295636Y64198D01*
X294876Y66033D01*
X293668Y67608D01*
X292092Y68816D01*
X290258Y69576D01*
X288290Y69835D01*
X287354Y69712D01*
X275036Y82031D01*
X273534Y83034D01*
X271763Y83386D01*
X271674Y83369D01*
X171052D01*
X170478Y84118D01*
X168902Y85326D01*
X167068Y86086D01*
X165100Y86345D01*
D02*
G37*
G36*
X611060Y23240D02*
X608290D01*
Y15200D01*
X616330D01*
Y17970D01*
X611060Y23240D01*
D02*
G37*
G36*
X-155892Y184785D02*
X-166688D01*
X-172085Y179387D01*
Y168592D01*
X-166688Y163195D01*
X-155892D01*
X-150495Y168592D01*
Y169361D01*
X-99707D01*
X-37649Y107303D01*
Y17382D01*
X-38398Y16808D01*
X-39606Y15232D01*
X-40366Y13398D01*
X-40625Y11430D01*
X-40366Y9462D01*
X-39606Y7628D01*
X-38398Y6052D01*
X-36823Y4844D01*
X-34988Y4084D01*
X-33020Y3825D01*
X-31052Y4084D01*
X-29218Y4844D01*
X-27642Y6052D01*
X-26434Y7628D01*
X-25674Y9462D01*
X-25415Y11430D01*
X-25674Y13398D01*
X-26434Y15232D01*
X-27642Y16808D01*
X-28391Y17382D01*
Y109220D01*
X-28391Y109220D01*
X-28743Y110991D01*
X-29747Y112493D01*
X-29747Y112493D01*
X-94517Y177263D01*
X-96019Y178267D01*
X-97790Y178619D01*
X-97790Y178619D01*
X-150495D01*
Y179387D01*
X-155892Y184785D01*
D02*
G37*
G36*
X616330Y10200D02*
X608290D01*
Y2160D01*
X611060D01*
X616330Y7430D01*
Y10200D01*
D02*
G37*
G36*
X-155892Y15875D02*
X-166688D01*
X-172085Y10477D01*
Y-318D01*
X-166688Y-5715D01*
X-155892D01*
X-150495Y-318D01*
Y10477D01*
X-155892Y15875D01*
D02*
G37*
G36*
X611060Y-2160D02*
X608290D01*
Y-10200D01*
X616330D01*
Y-7430D01*
X611060Y-2160D01*
D02*
G37*
G36*
X106620Y15040D02*
X96580D01*
X91560Y10020D01*
Y-10020D01*
X96580Y-15040D01*
X106620D01*
X111640Y-10020D01*
Y10020D01*
X106620Y15040D01*
D02*
G37*
G36*
X81220D02*
X71180D01*
X66160Y10020D01*
Y-10020D01*
X71180Y-15040D01*
X81220D01*
X86240Y-10020D01*
Y10020D01*
X81220Y15040D01*
D02*
G37*
G36*
X55820D02*
X45780D01*
X40760Y10020D01*
Y-10020D01*
X45780Y-15040D01*
X55820D01*
X60840Y-10020D01*
Y10020D01*
X55820Y15040D01*
D02*
G37*
G36*
X30420D02*
X20380D01*
X15360Y10020D01*
Y-10020D01*
X20380Y-15040D01*
X30420D01*
X35440Y-10020D01*
Y10020D01*
X30420Y15040D01*
D02*
G37*
G36*
X10040D02*
X-10040D01*
Y-15040D01*
X10040D01*
Y15040D01*
D02*
G37*
G36*
X616330Y-15200D02*
X608290D01*
Y-23240D01*
X611060D01*
X616330Y-17970D01*
Y-15200D01*
D02*
G37*
G36*
X-150495Y-34925D02*
X-172085D01*
Y-56515D01*
X-150495D01*
Y-34925D01*
D02*
G37*
G36*
X628650Y-8905D02*
X626682Y-9164D01*
X624847Y-9924D01*
X623272Y-11132D01*
X622064Y-12708D01*
X621304Y-14542D01*
X621045Y-16510D01*
X621304Y-18478D01*
X622064Y-20312D01*
X623272Y-21888D01*
X624021Y-22462D01*
Y-46990D01*
X624021Y-46990D01*
X624373Y-48761D01*
X625377Y-50263D01*
X631717Y-56603D01*
X631717Y-56603D01*
X633219Y-57607D01*
X634990Y-57959D01*
X645820D01*
Y-62220D01*
X669900D01*
Y-44440D01*
X645820D01*
Y-48701D01*
X636907D01*
X633279Y-45073D01*
Y-22462D01*
X634028Y-21888D01*
X635236Y-20312D01*
X635996Y-18478D01*
X636255Y-16510D01*
X635996Y-14542D01*
X635236Y-12708D01*
X634028Y-11132D01*
X632453Y-9924D01*
X630618Y-9164D01*
X628650Y-8905D01*
D02*
G37*
G36*
X241300Y-46510D02*
X238288Y-46907D01*
X235480Y-48070D01*
X233070Y-49920D01*
X231220Y-52330D01*
X230057Y-55138D01*
X229660Y-58150D01*
X230057Y-61163D01*
X231220Y-63970D01*
X233070Y-66380D01*
X235480Y-68230D01*
X238288Y-69393D01*
X241300Y-69790D01*
X244312Y-69393D01*
X247120Y-68230D01*
X249530Y-66380D01*
X251380Y-63970D01*
X252543Y-61163D01*
X252940Y-58150D01*
X252543Y-55138D01*
X251380Y-52330D01*
X249530Y-49920D01*
X247120Y-48070D01*
X244312Y-46907D01*
X241300Y-46510D01*
D02*
G37*
G36*
Y-95310D02*
X238288Y-95707D01*
X235480Y-96870D01*
X233070Y-98720D01*
X231220Y-101130D01*
X230057Y-103938D01*
X229660Y-106950D01*
X230057Y-109963D01*
X231220Y-112770D01*
X233070Y-115180D01*
X235480Y-117030D01*
X238288Y-118193D01*
X241300Y-118590D01*
X244312Y-118193D01*
X247120Y-117030D01*
X249530Y-115180D01*
X251380Y-112770D01*
X252543Y-109963D01*
X252940Y-106950D01*
X252543Y-103938D01*
X251380Y-101130D01*
X249530Y-98720D01*
X247120Y-96870D01*
X244312Y-95707D01*
X241300Y-95310D01*
D02*
G37*
G36*
X462470Y-116460D02*
X459700D01*
Y-124500D01*
X467740D01*
Y-121730D01*
X462470Y-116460D01*
D02*
G37*
G36*
X132270D02*
X129500D01*
Y-124500D01*
X137540D01*
Y-121730D01*
X132270Y-116460D01*
D02*
G37*
G36*
X454700D02*
X451930D01*
X446660Y-121730D01*
Y-124500D01*
X454700D01*
Y-116460D01*
D02*
G37*
G36*
X124500D02*
X121730D01*
X116460Y-121730D01*
Y-124500D01*
X124500D01*
Y-116460D01*
D02*
G37*
G36*
X467740Y-129500D02*
X459700D01*
Y-137540D01*
X462470D01*
X467740Y-132270D01*
Y-129500D01*
D02*
G37*
G36*
X454700D02*
X446660D01*
Y-132270D01*
X451930Y-137540D01*
X454700D01*
Y-129500D01*
D02*
G37*
G36*
X437070Y-116460D02*
X426530D01*
X421260Y-121730D01*
Y-132270D01*
X426530Y-137540D01*
X437070D01*
X442340Y-132270D01*
Y-121730D01*
X437070Y-116460D01*
D02*
G37*
G36*
X411670D02*
X401130D01*
X395860Y-121730D01*
Y-132270D01*
X401130Y-137540D01*
X411670D01*
X416940Y-132270D01*
Y-121730D01*
X411670Y-116460D01*
D02*
G37*
G36*
X386270D02*
X375730D01*
X370460Y-121730D01*
Y-132270D01*
X375730Y-137540D01*
X386270D01*
X391540Y-132270D01*
Y-121730D01*
X386270Y-116460D01*
D02*
G37*
G36*
X360870D02*
X350330D01*
X345060Y-121730D01*
Y-132270D01*
X350330Y-137540D01*
X360870D01*
X366140Y-132270D01*
Y-121730D01*
X360870Y-116460D01*
D02*
G37*
G36*
X137540Y-129500D02*
X129500D01*
Y-137540D01*
X132270D01*
X137540Y-132270D01*
Y-129500D01*
D02*
G37*
G36*
X124500D02*
X116460D01*
Y-132270D01*
X121730Y-137540D01*
X124500D01*
Y-129500D01*
D02*
G37*
G36*
X106870Y-116460D02*
X96330D01*
X91060Y-121730D01*
Y-132270D01*
X96330Y-137540D01*
X106870D01*
X112140Y-132270D01*
Y-121730D01*
X106870Y-116460D01*
D02*
G37*
G36*
X81470D02*
X70930D01*
X65660Y-121730D01*
Y-132270D01*
X70930Y-137540D01*
X81470D01*
X86740Y-132270D01*
Y-121730D01*
X81470Y-116460D01*
D02*
G37*
G36*
X56070D02*
X45530D01*
X40260Y-121730D01*
Y-132270D01*
X45530Y-137540D01*
X56070D01*
X61340Y-132270D01*
Y-121730D01*
X56070Y-116460D01*
D02*
G37*
G36*
X30670D02*
X20130D01*
X14860Y-121730D01*
Y-132270D01*
X20130Y-137540D01*
X30670D01*
X35940Y-132270D01*
Y-121730D01*
X30670Y-116460D01*
D02*
G37*
G36*
X462470Y-141860D02*
X451930D01*
X446660Y-147130D01*
Y-157670D01*
X451930Y-162940D01*
X462470D01*
X467740Y-157670D01*
Y-147130D01*
X462470Y-141860D01*
D02*
G37*
G36*
X437070D02*
X426530D01*
X421260Y-147130D01*
Y-157670D01*
X426530Y-162940D01*
X437070D01*
X442340Y-157670D01*
Y-147130D01*
X437070Y-141860D01*
D02*
G37*
G36*
X411670D02*
X401130D01*
X395860Y-147130D01*
Y-157670D01*
X401130Y-162940D01*
X411670D01*
X416940Y-157670D01*
Y-147130D01*
X411670Y-141860D01*
D02*
G37*
G36*
X386270D02*
X375730D01*
X370460Y-147130D01*
Y-157670D01*
X375730Y-162940D01*
X386270D01*
X391540Y-157670D01*
Y-147130D01*
X386270Y-141860D01*
D02*
G37*
G36*
X366140D02*
X345060D01*
Y-162940D01*
X366140D01*
Y-141860D01*
D02*
G37*
G36*
X132270D02*
X121730D01*
X116460Y-147130D01*
Y-157670D01*
X121730Y-162940D01*
X132270D01*
X137540Y-157670D01*
Y-147130D01*
X132270Y-141860D01*
D02*
G37*
G36*
X106870D02*
X96330D01*
X91060Y-147130D01*
Y-157670D01*
X96330Y-162940D01*
X106870D01*
X112140Y-157670D01*
Y-147130D01*
X106870Y-141860D01*
D02*
G37*
G36*
X81470D02*
X70930D01*
X65660Y-147130D01*
Y-157670D01*
X70930Y-162940D01*
X81470D01*
X86740Y-157670D01*
Y-147130D01*
X81470Y-141860D01*
D02*
G37*
G36*
X56070D02*
X45530D01*
X40260Y-147130D01*
Y-157670D01*
X45530Y-162940D01*
X56070D01*
X61340Y-157670D01*
Y-147130D01*
X56070Y-141860D01*
D02*
G37*
G36*
X35940D02*
X14860D01*
Y-162940D01*
X35940D01*
Y-141860D01*
D02*
G37*
G36*
X611060Y-167260D02*
X608290D01*
Y-175300D01*
X616330D01*
Y-172530D01*
X611060Y-167260D01*
D02*
G37*
G36*
X603290D02*
X600520D01*
X595250Y-172530D01*
Y-175300D01*
X603290D01*
Y-167260D01*
D02*
G37*
G36*
X616330Y-180300D02*
X608290D01*
Y-188340D01*
X611060D01*
X616330Y-183070D01*
Y-180300D01*
D02*
G37*
G36*
X603290D02*
X595250D01*
Y-183070D01*
X600520Y-188340D01*
X603290D01*
Y-180300D01*
D02*
G37*
G36*
X-189810Y-187300D02*
X-208350D01*
X-214120Y-193070D01*
Y-204610D01*
X-208350Y-210380D01*
X-189810D01*
X-184040Y-204610D01*
Y-193070D01*
X-189810Y-187300D01*
D02*
G37*
G36*
X-80830Y-181260D02*
X-97100D01*
Y-216300D01*
X-62060D01*
Y-200030D01*
X-80830Y-181260D01*
D02*
G37*
G36*
X699170D02*
X682900D01*
Y-216300D01*
X717940D01*
Y-200030D01*
X699170Y-181260D01*
D02*
G37*
G36*
X-102100D02*
X-118370D01*
X-137140Y-200030D01*
Y-216300D01*
X-127312D01*
X-125000Y-216604D01*
X-122688Y-216300D01*
X-102100D01*
Y-195712D01*
X-101796Y-193400D01*
X-102100Y-191088D01*
Y-181260D01*
D02*
G37*
G36*
X677900D02*
X661630D01*
X642860Y-200030D01*
Y-216300D01*
X652688D01*
X655000Y-216604D01*
X657312Y-216300D01*
X677900D01*
Y-195712D01*
X678204Y-193400D01*
X677900Y-191088D01*
Y-181260D01*
D02*
G37*
G36*
X-249810Y-232300D02*
X-256580D01*
Y-241340D01*
X-244040D01*
Y-238070D01*
X-249810Y-232300D01*
D02*
G37*
G36*
X-189810D02*
X-196580D01*
Y-241340D01*
X-184040D01*
Y-238070D01*
X-189810Y-232300D01*
D02*
G37*
G36*
X-201580D02*
X-208350D01*
X-214120Y-238070D01*
Y-241340D01*
X-201580D01*
Y-232300D01*
D02*
G37*
G36*
X616330Y327700D02*
X608290D01*
Y319660D01*
X611060D01*
X616330Y324930D01*
Y327700D01*
D02*
G37*
G36*
X611060Y239140D02*
X608290D01*
Y231100D01*
X616330D01*
Y233870D01*
X611060Y239140D01*
D02*
G37*
G36*
X616330Y226100D02*
X608290D01*
Y218060D01*
X611060D01*
X616330Y223330D01*
Y226100D01*
D02*
G37*
G36*
X264040Y-2500D02*
X256500D01*
Y-15040D01*
X259020D01*
X264040Y-10020D01*
Y-2500D01*
D02*
G37*
G36*
X251500D02*
X243960D01*
Y-10020D01*
X248980Y-15040D01*
X251500D01*
Y-2500D01*
D02*
G37*
%LPD*%
D10*
X-267970Y365597D02*
X-261306D01*
X-264638D01*
Y355600D01*
X-252975Y365597D02*
X-256307D01*
X-257973Y363931D01*
Y357266D01*
X-256307Y355600D01*
X-252975D01*
X-251309Y357266D01*
Y363931D01*
X-252975Y365597D01*
X-247976Y355600D02*
Y365597D01*
X-242978D01*
X-241312Y363931D01*
Y360598D01*
X-242978Y358932D01*
X-247976D01*
D12*
X127000Y19050D02*
X141160Y33210D01*
X552640D02*
X566420Y46990D01*
X141160Y33210D02*
X552640D01*
X623570Y-173990D02*
Y-105410D01*
X619760Y-177800D02*
X623570Y-173990D01*
X605790Y-177800D02*
X619760D01*
X38260Y299240D02*
Y313850D01*
X31281Y292260D02*
X38260Y299240D01*
X26830Y292260D02*
X31281D01*
X25400Y290830D02*
X26830Y292260D01*
X25400Y279400D02*
Y290830D01*
X-33020Y11430D02*
Y109220D01*
X-97790Y173990D02*
X-33020Y109220D01*
X-161290Y173990D02*
X-97790D01*
X-186690Y109220D02*
Y123190D01*
Y109220D02*
X-179070Y101600D01*
Y80010D02*
Y101600D01*
X-46990Y-29210D02*
X203200D01*
Y0D01*
Y-29210D02*
X591820D01*
X-88900Y12700D02*
X-46990Y-29210D01*
X-88900Y12700D02*
Y109220D01*
X-102870Y123190D02*
X-88900Y109220D01*
X-161290Y123190D02*
X-102870D01*
X-186690Y173990D02*
Y204470D01*
X-219710Y237490D02*
X-186690Y204470D01*
X-119380Y88900D02*
X-105420D01*
X-172720Y69850D02*
X-162560Y80010D01*
X-191770Y69850D02*
X-172720D01*
X-196860Y74940D02*
X-191770Y69850D01*
X-196860Y74940D02*
Y88900D01*
X-161768Y43180D02*
X-138420Y66528D01*
X-196540Y43180D02*
X-161768D01*
X-213360Y60000D02*
X-196540Y43180D01*
X-138420Y66528D02*
Y88900D01*
X-213360Y60000D02*
Y111760D01*
X-244960Y143360D02*
X-213360Y111760D01*
X-244960Y143360D02*
Y161290D01*
X-138420Y88900D02*
Y91430D01*
X299720Y335280D02*
X355600Y279400D01*
X59690Y335280D02*
X299720D01*
X38260Y313850D02*
X59690Y335280D01*
X52070Y344170D02*
X355600D01*
Y304800D02*
Y344170D01*
X591820D01*
X25400Y304800D02*
Y317500D01*
X52070Y344170D01*
X25400Y171091D02*
X127000Y272691D01*
X25400Y152400D02*
Y171091D01*
X127000Y272691D02*
Y279400D01*
X114300Y269240D02*
Y292100D01*
X25400Y180340D02*
X114300Y269240D01*
X11430Y180340D02*
X25400D01*
X0Y168910D02*
X11430Y180340D01*
X0Y152400D02*
Y168910D01*
X114300Y292100D02*
X127000Y304800D01*
X165100Y78740D02*
X271745D01*
X271763Y78758D01*
X288290Y62230D01*
X228600Y133350D02*
Y152400D01*
X222250Y127000D02*
X228600Y133350D01*
X154940Y127000D02*
X222250D01*
X190500Y26670D02*
X550269D01*
X197930Y20130D02*
X547560D01*
X279400Y152400D02*
Y179690D01*
X279075Y180015D02*
X279400Y179690D01*
X233030Y226060D02*
X263510Y195580D01*
X273141Y185949D02*
X279075Y180015D01*
X273141Y185949D02*
X282333Y195142D01*
X275913Y201562D02*
X282333Y195142D01*
X266720Y192370D02*
X275913Y201562D01*
X263510Y195580D02*
X266720Y192370D01*
X304800Y152400D02*
Y182880D01*
X261620Y226060D02*
X304800Y182880D01*
X247030Y226060D02*
X261620D01*
X393700Y267970D02*
X426720Y234950D01*
X593090Y-27940D02*
Y38100D01*
Y-165100D02*
Y-27940D01*
X591820Y-29210D02*
X593090Y-27940D01*
X580390Y-177800D02*
X593090Y-165100D01*
X566420Y74930D02*
X580390Y88900D01*
X566420Y46990D02*
Y74930D01*
X190500Y12700D02*
X197930Y20130D01*
X190500Y-12700D02*
Y12700D01*
X547560Y20130D02*
X580390Y-12700D01*
X550269Y26670D02*
X564239Y12700D01*
X177800Y13970D02*
X190500Y26670D01*
X564239Y12700D02*
X580390D01*
X184150Y-19050D02*
X190500Y-12700D01*
X166370Y-19050D02*
X184150D01*
X152400Y-5080D02*
X166370Y-19050D01*
X152400Y-5080D02*
Y0D01*
X177800D02*
Y13970D01*
X593090Y38100D02*
Y261620D01*
X580390Y38100D02*
X593090D01*
X615950Y344170D02*
X622300Y337820D01*
Y201930D02*
Y337820D01*
X605790Y185420D02*
X622300Y201930D01*
X591820Y344170D02*
X592930Y343060D01*
Y304800D02*
Y343060D01*
X591820Y344170D02*
X615950D01*
X605790Y88900D02*
Y185420D01*
X393700Y267970D02*
Y287020D01*
X388620Y292100D02*
X393700Y287020D01*
X368300Y292100D02*
X388620D01*
X355600Y304800D02*
X368300Y292100D01*
X592930Y270709D02*
Y304800D01*
X605790D01*
X580390Y258169D02*
X592930Y270709D01*
X127000Y0D02*
Y19050D01*
X605790Y-87630D02*
X623570Y-105410D01*
X605790Y-87630D02*
Y-12700D01*
Y88900D02*
X619760Y74930D01*
Y33020D02*
Y74930D01*
Y33020D02*
X657860Y-5080D01*
Y-20330D02*
Y-5080D01*
X628650Y-46990D02*
Y-16510D01*
Y-46990D02*
X634990Y-53330D01*
X657860D01*
X605790Y38100D02*
Y63500D01*
Y12700D02*
Y38100D01*
Y-12700D02*
Y12700D01*
X580390Y254000D02*
Y258169D01*
X593090Y261620D02*
X605790Y274320D01*
Y279400D01*
X554990Y254000D02*
X580390Y228600D01*
X431800Y254000D02*
X554990D01*
X406400Y279400D02*
X431800Y254000D01*
Y279400D02*
X447040Y264160D01*
X481330D01*
X496570Y279400D01*
X580390D01*
X567690Y292100D02*
X580390Y304800D01*
X419100Y292100D02*
X567690D01*
X406400Y304800D02*
X419100Y292100D01*
X431800Y304800D02*
X457200Y330200D01*
X580390D01*
D20*
X-229860Y88900D02*
D03*
X-196860D02*
D03*
X-138420D02*
D03*
X-105420D02*
D03*
X-81290Y312420D02*
D03*
X-114290D02*
D03*
D21*
X240030Y323850D02*
D03*
D22*
X223520Y281940D02*
D03*
X256540D02*
D03*
D23*
X657860Y-20330D02*
D03*
Y-53330D02*
D03*
D45*
X-81290Y293370D02*
Y312420D01*
X-179070Y-20320D02*
X-161290D01*
X-265430Y66040D02*
X-179070Y-20320D01*
X-265430Y66040D02*
Y194310D01*
X-249555Y210185D02*
X-235585D01*
X-237490Y212090D02*
X-235585Y210185D01*
X-219075D01*
X-237490Y212090D02*
Y275590D01*
X-219075Y210185D02*
X-208280Y199390D01*
X-265430Y194310D02*
X-249555Y210185D01*
X-208280Y171220D02*
Y199390D01*
X-81290Y293370D02*
X-24130D01*
X-219710D02*
X-81290D01*
X-12700Y304800D02*
X25400D01*
X-24130Y293370D02*
X-12700Y304800D01*
X-218960Y160540D02*
X-208280Y171220D01*
X-237490Y275590D02*
X-219710Y293370D01*
D46*
X-255270Y175260D02*
X-236220Y194310D01*
X-255270Y125730D02*
Y175260D01*
X-236220Y194310D02*
X-225460D01*
X-255270Y125730D02*
X-229860Y100320D01*
Y88900D02*
Y100320D01*
D47*
X-199080Y-243840D02*
D03*
X-259080D02*
D03*
Y-198840D02*
D03*
X-199080D02*
D03*
D48*
X-161290Y5080D02*
D03*
Y-20320D02*
D03*
Y173990D02*
D03*
Y148590D02*
D03*
Y123190D02*
D03*
X-186690D02*
D03*
Y148590D02*
D03*
D49*
X-161290Y-45720D02*
D03*
X-186690Y173990D02*
D03*
D50*
X247030Y226060D02*
D03*
X233030D02*
D03*
D51*
X-206700Y263500D02*
D03*
Y383900D02*
D03*
D52*
X-159600Y311200D02*
D03*
Y336200D02*
D03*
X-179600D02*
D03*
D53*
Y311200D02*
D03*
D54*
X0Y0D02*
D03*
D55*
X25400D02*
D03*
X50800D02*
D03*
X76200D02*
D03*
X101600D02*
D03*
X127000D02*
D03*
X152400D02*
D03*
X177800D02*
D03*
X203200D02*
D03*
X228600D02*
D03*
X254000D02*
D03*
X279400D02*
D03*
X304800D02*
D03*
X330200D02*
D03*
X355600D02*
D03*
X381000D02*
D03*
X406400D02*
D03*
X431800D02*
D03*
X457200D02*
D03*
X482600D02*
D03*
X0Y152400D02*
D03*
X25400D02*
D03*
X50800D02*
D03*
X76200D02*
D03*
X101600D02*
D03*
X127000D02*
D03*
X152400D02*
D03*
X177800D02*
D03*
X203200D02*
D03*
X228600D02*
D03*
X254000D02*
D03*
X279400D02*
D03*
X304800D02*
D03*
X330200D02*
D03*
X355600D02*
D03*
X381000D02*
D03*
X406400D02*
D03*
X431800D02*
D03*
X457200D02*
D03*
X482600D02*
D03*
D56*
X705800Y385170D02*
D03*
Y358500D02*
D03*
X655000D02*
D03*
Y383900D02*
D03*
X694370Y345800D02*
D03*
X667700D02*
D03*
X694370Y396600D02*
D03*
X667700D02*
D03*
X705800Y-204830D02*
D03*
Y-231500D02*
D03*
X655000D02*
D03*
Y-206100D02*
D03*
X694370Y-244200D02*
D03*
X667700D02*
D03*
X694370Y-193400D02*
D03*
X667700D02*
D03*
X-74200Y385170D02*
D03*
Y358500D02*
D03*
X-125000D02*
D03*
Y383900D02*
D03*
X-85630Y345800D02*
D03*
X-112300D02*
D03*
X-85630Y396600D02*
D03*
X-112300D02*
D03*
X-74200Y-204830D02*
D03*
Y-231500D02*
D03*
X-125000D02*
D03*
Y-206100D02*
D03*
X-85630Y-244200D02*
D03*
X-112300D02*
D03*
X-85630Y-193400D02*
D03*
X-112300D02*
D03*
D57*
X680400Y371200D02*
D03*
X680400Y-218800D02*
D03*
X-99600Y371200D02*
D03*
Y-218800D02*
D03*
D58*
X580390Y88900D02*
D03*
Y330200D02*
D03*
Y-127000D02*
D03*
D59*
X605790Y88900D02*
D03*
X580390Y63500D02*
D03*
X605790D02*
D03*
X580390Y38100D02*
D03*
X605790D02*
D03*
X580390Y12700D02*
D03*
X605790D02*
D03*
X580390Y-12700D02*
D03*
X605790D02*
D03*
Y228600D02*
D03*
X580390D02*
D03*
X605790Y254000D02*
D03*
X580390D02*
D03*
X605790Y279400D02*
D03*
X580390D02*
D03*
X605790Y304800D02*
D03*
X580390D02*
D03*
X605790Y330200D02*
D03*
Y-177800D02*
D03*
X580390D02*
D03*
Y-152400D02*
D03*
X605790D02*
D03*
Y-127000D02*
D03*
D60*
X127000Y304800D02*
D03*
X25400Y-152400D02*
D03*
X457200Y304800D02*
D03*
X355600Y-152400D02*
D03*
D61*
X127000Y279400D02*
D03*
X101600Y304800D02*
D03*
Y279400D02*
D03*
X76200Y304800D02*
D03*
Y279400D02*
D03*
X50800Y304800D02*
D03*
Y279400D02*
D03*
X25400Y304800D02*
D03*
Y279400D02*
D03*
X127000Y-127000D02*
D03*
Y-152400D02*
D03*
X101600Y-127000D02*
D03*
Y-152400D02*
D03*
X76200Y-127000D02*
D03*
Y-152400D02*
D03*
X50800Y-127000D02*
D03*
Y-152400D02*
D03*
X25400Y-127000D02*
D03*
X457200Y279400D02*
D03*
X431800Y304800D02*
D03*
Y279400D02*
D03*
X406400Y304800D02*
D03*
Y279400D02*
D03*
X381000Y304800D02*
D03*
Y279400D02*
D03*
X355600Y304800D02*
D03*
Y279400D02*
D03*
X457200Y-127000D02*
D03*
Y-152400D02*
D03*
X431800Y-127000D02*
D03*
Y-152400D02*
D03*
X406400Y-127000D02*
D03*
Y-152400D02*
D03*
X381000Y-127000D02*
D03*
Y-152400D02*
D03*
X355600Y-127000D02*
D03*
D62*
X241300Y-106950D02*
D03*
Y-58150D02*
D03*
X-114300Y312420D02*
D03*
D63*
X-82550D02*
D03*
D64*
X-33020Y11430D02*
D03*
X-219710Y237490D02*
D03*
X-119380Y88900D02*
D03*
X-162560Y80010D02*
D03*
X-179070D02*
D03*
X-225460Y194310D02*
D03*
X-244960Y161290D02*
D03*
X-218960Y160540D02*
D03*
X-248920Y284387D02*
D03*
X165100Y78740D02*
D03*
X154940Y127000D02*
D03*
X288290Y62230D02*
D03*
X426720Y234950D02*
D03*
X628650Y-16510D02*
D03*
M02*
