G04*
G04 #@! TF.GenerationSoftware,Altium Limited,Altium Designer,18.1.6 (161)*
G04*
G04 Layer_Color=8388736*
%FSLAX44Y44*%
%MOMM*%
G71*
G01*
G75*
%ADD24R,1.4732X2.1032*%
%ADD25R,2.4032X1.2032*%
%ADD26R,1.2032X4.2032*%
%ADD27R,2.1032X1.4732*%
G04:AMPARAMS|DCode=28|XSize=2.7032mm|YSize=2.0032mm|CornerRadius=0mm|HoleSize=0mm|Usage=FLASHONLY|Rotation=180.000|XOffset=0mm|YOffset=0mm|HoleType=Round|Shape=Octagon|*
%AMOCTAGOND28*
4,1,8,-1.3516,0.5008,-1.3516,-0.5008,-0.8508,-1.0016,0.8508,-1.0016,1.3516,-0.5008,1.3516,0.5008,0.8508,1.0016,-0.8508,1.0016,-1.3516,0.5008,0.0*
%
%ADD28OCTAGOND28*%

%ADD29P,2.0070X8X112.5*%
%ADD30R,1.8542X1.8542*%
%ADD31P,1.3023X8X22.5*%
%ADD32C,4.2032*%
G04:AMPARAMS|DCode=33|XSize=1.8032mm|YSize=2.2032mm|CornerRadius=0mm|HoleSize=0mm|Usage=FLASHONLY|Rotation=0.000|XOffset=0mm|YOffset=0mm|HoleType=Round|Shape=Octagon|*
%AMOCTAGOND33*
4,1,8,-0.4508,1.1016,0.4508,1.1016,0.9016,0.6508,0.9016,-0.6508,0.4508,-1.1016,-0.4508,-1.1016,-0.9016,-0.6508,-0.9016,0.6508,-0.4508,1.1016,0.0*
%
%ADD33OCTAGOND33*%

G04:AMPARAMS|DCode=34|XSize=1.7032mm|YSize=2.2032mm|CornerRadius=0mm|HoleSize=0mm|Usage=FLASHONLY|Rotation=0.000|XOffset=0mm|YOffset=0mm|HoleType=Round|Shape=Octagon|*
%AMOCTAGOND34*
4,1,8,-0.4258,1.1016,0.4258,1.1016,0.8516,0.6758,0.8516,-0.6758,0.4258,-1.1016,-0.4258,-1.1016,-0.8516,-0.6758,-0.8516,0.6758,-0.4258,1.1016,0.0*
%
%ADD34OCTAGOND34*%

%ADD35R,1.7032X2.7032*%
G04:AMPARAMS|DCode=36|XSize=2.7032mm|YSize=1.7032mm|CornerRadius=0mm|HoleSize=0mm|Usage=FLASHONLY|Rotation=90.000|XOffset=0mm|YOffset=0mm|HoleType=Round|Shape=Octagon|*
%AMOCTAGOND36*
4,1,8,0.4258,1.3516,-0.4258,1.3516,-0.8516,0.9258,-0.8516,-0.9258,-0.4258,-1.3516,0.4258,-1.3516,0.8516,-0.9258,0.8516,0.9258,0.4258,1.3516,0.0*
%
%ADD36OCTAGOND36*%

%ADD37C,1.7780*%
%ADD38P,7.7968X8X292.5*%
%ADD39R,1.8032X1.8032*%
%ADD40P,1.9518X8X112.5*%
%ADD41R,1.8032X1.8032*%
%ADD42P,1.9518X8X22.5*%
%ADD43C,2.0032*%
%ADD44R,2.0032X2.0032*%
D24*
X-229860Y88900D02*
D03*
X-196860D02*
D03*
X-138420D02*
D03*
X-105420D02*
D03*
X-81290Y312420D02*
D03*
X-114290D02*
D03*
D25*
X240030Y323850D02*
D03*
D26*
X223520Y281940D02*
D03*
X256540D02*
D03*
D27*
X657860Y-20330D02*
D03*
Y-53330D02*
D03*
D28*
X-199080Y-243840D02*
D03*
X-259080D02*
D03*
Y-198840D02*
D03*
X-199080D02*
D03*
D29*
X-161290Y5080D02*
D03*
Y-20320D02*
D03*
Y173990D02*
D03*
Y148590D02*
D03*
Y123190D02*
D03*
X-186690D02*
D03*
Y148590D02*
D03*
D30*
X-161290Y-45720D02*
D03*
X-186690Y173990D02*
D03*
D31*
X247030Y226060D02*
D03*
X233030D02*
D03*
D32*
X-206700Y263500D02*
D03*
Y383900D02*
D03*
D33*
X-159600Y311200D02*
D03*
Y336200D02*
D03*
X-179600D02*
D03*
D34*
Y311200D02*
D03*
D35*
X0Y0D02*
D03*
D36*
X25400D02*
D03*
X50800D02*
D03*
X76200D02*
D03*
X101600D02*
D03*
X127000D02*
D03*
X152400D02*
D03*
X177800D02*
D03*
X203200D02*
D03*
X228600D02*
D03*
X254000D02*
D03*
X279400D02*
D03*
X304800D02*
D03*
X330200D02*
D03*
X355600D02*
D03*
X381000D02*
D03*
X406400D02*
D03*
X431800D02*
D03*
X457200D02*
D03*
X482600D02*
D03*
X0Y152400D02*
D03*
X25400D02*
D03*
X50800D02*
D03*
X76200D02*
D03*
X101600D02*
D03*
X127000D02*
D03*
X152400D02*
D03*
X177800D02*
D03*
X203200D02*
D03*
X228600D02*
D03*
X254000D02*
D03*
X279400D02*
D03*
X304800D02*
D03*
X330200D02*
D03*
X355600D02*
D03*
X381000D02*
D03*
X406400D02*
D03*
X431800D02*
D03*
X457200D02*
D03*
X482600D02*
D03*
D37*
X705800Y385170D02*
D03*
Y358500D02*
D03*
X655000D02*
D03*
Y383900D02*
D03*
X694370Y345800D02*
D03*
X667700D02*
D03*
X694370Y396600D02*
D03*
X667700D02*
D03*
X705800Y-204830D02*
D03*
Y-231500D02*
D03*
X655000D02*
D03*
Y-206100D02*
D03*
X694370Y-244200D02*
D03*
X667700D02*
D03*
X694370Y-193400D02*
D03*
X667700D02*
D03*
X-74200Y385170D02*
D03*
Y358500D02*
D03*
X-125000D02*
D03*
Y383900D02*
D03*
X-85630Y345800D02*
D03*
X-112300D02*
D03*
X-85630Y396600D02*
D03*
X-112300D02*
D03*
X-74200Y-204830D02*
D03*
Y-231500D02*
D03*
X-125000D02*
D03*
Y-206100D02*
D03*
X-85630Y-244200D02*
D03*
X-112300D02*
D03*
X-85630Y-193400D02*
D03*
X-112300D02*
D03*
D38*
X680400Y371200D02*
D03*
X680400Y-218800D02*
D03*
X-99600Y371200D02*
D03*
Y-218800D02*
D03*
D39*
X580390Y88900D02*
D03*
Y330200D02*
D03*
Y-127000D02*
D03*
D40*
X605790Y88900D02*
D03*
X580390Y63500D02*
D03*
X605790D02*
D03*
X580390Y38100D02*
D03*
X605790D02*
D03*
X580390Y12700D02*
D03*
X605790D02*
D03*
X580390Y-12700D02*
D03*
X605790D02*
D03*
Y228600D02*
D03*
X580390D02*
D03*
X605790Y254000D02*
D03*
X580390D02*
D03*
X605790Y279400D02*
D03*
X580390D02*
D03*
X605790Y304800D02*
D03*
X580390D02*
D03*
X605790Y330200D02*
D03*
Y-177800D02*
D03*
X580390D02*
D03*
Y-152400D02*
D03*
X605790D02*
D03*
Y-127000D02*
D03*
D41*
X127000Y304800D02*
D03*
X25400Y-152400D02*
D03*
X457200Y304800D02*
D03*
X355600Y-152400D02*
D03*
D42*
X127000Y279400D02*
D03*
X101600Y304800D02*
D03*
Y279400D02*
D03*
X76200Y304800D02*
D03*
Y279400D02*
D03*
X50800Y304800D02*
D03*
Y279400D02*
D03*
X25400Y304800D02*
D03*
Y279400D02*
D03*
X127000Y-127000D02*
D03*
Y-152400D02*
D03*
X101600Y-127000D02*
D03*
Y-152400D02*
D03*
X76200Y-127000D02*
D03*
Y-152400D02*
D03*
X50800Y-127000D02*
D03*
Y-152400D02*
D03*
X25400Y-127000D02*
D03*
X457200Y279400D02*
D03*
X431800Y304800D02*
D03*
Y279400D02*
D03*
X406400Y304800D02*
D03*
Y279400D02*
D03*
X381000Y304800D02*
D03*
Y279400D02*
D03*
X355600Y304800D02*
D03*
Y279400D02*
D03*
X457200Y-127000D02*
D03*
Y-152400D02*
D03*
X431800Y-127000D02*
D03*
Y-152400D02*
D03*
X406400Y-127000D02*
D03*
Y-152400D02*
D03*
X381000Y-127000D02*
D03*
Y-152400D02*
D03*
X355600Y-127000D02*
D03*
D43*
X241300Y-106950D02*
D03*
Y-58150D02*
D03*
X-114300Y312420D02*
D03*
D44*
X-82550D02*
D03*
M02*
