G04*
G04 #@! TF.GenerationSoftware,Altium Limited,Altium Designer,18.1.6 (161)*
G04*
G04 Layer_Color=255*
%FSLAX44Y44*%
%MOMM*%
G71*
G01*
G75*
G04:AMPARAMS|DCode=47|XSize=2.5mm|YSize=1.8mm|CornerRadius=0mm|HoleSize=0mm|Usage=FLASHONLY|Rotation=180.000|XOffset=0mm|YOffset=0mm|HoleType=Round|Shape=Octagon|*
%AMOCTAGOND47*
4,1,8,-1.2500,0.4500,-1.2500,-0.4500,-0.8000,-0.9000,0.8000,-0.9000,1.2500,-0.4500,1.2500,0.4500,0.8000,0.9000,-0.8000,0.9000,-1.2500,0.4500,0.0*
%
%ADD47OCTAGOND47*%

%ADD48P,1.7870X8X112.5*%
%ADD49R,1.6510X1.6510*%
%ADD50P,1.0824X8X22.5*%
%ADD51C,4.0000*%
G04:AMPARAMS|DCode=52|XSize=1.6mm|YSize=2mm|CornerRadius=0mm|HoleSize=0mm|Usage=FLASHONLY|Rotation=0.000|XOffset=0mm|YOffset=0mm|HoleType=Round|Shape=Octagon|*
%AMOCTAGOND52*
4,1,8,-0.4000,1.0000,0.4000,1.0000,0.8000,0.6000,0.8000,-0.6000,0.4000,-1.0000,-0.4000,-1.0000,-0.8000,-0.6000,-0.8000,0.6000,-0.4000,1.0000,0.0*
%
%ADD52OCTAGOND52*%

G04:AMPARAMS|DCode=53|XSize=1.5mm|YSize=2mm|CornerRadius=0mm|HoleSize=0mm|Usage=FLASHONLY|Rotation=0.000|XOffset=0mm|YOffset=0mm|HoleType=Round|Shape=Octagon|*
%AMOCTAGOND53*
4,1,8,-0.3750,1.0000,0.3750,1.0000,0.7500,0.6250,0.7500,-0.6250,0.3750,-1.0000,-0.3750,-1.0000,-0.7500,-0.6250,-0.7500,0.6250,-0.3750,1.0000,0.0*
%
%ADD53OCTAGOND53*%

%ADD54R,1.5000X2.5000*%
G04:AMPARAMS|DCode=55|XSize=2.5mm|YSize=1.5mm|CornerRadius=0mm|HoleSize=0mm|Usage=FLASHONLY|Rotation=90.000|XOffset=0mm|YOffset=0mm|HoleType=Round|Shape=Octagon|*
%AMOCTAGOND55*
4,1,8,0.3750,1.2500,-0.3750,1.2500,-0.7500,0.8750,-0.7500,-0.8750,-0.3750,-1.2500,0.3750,-1.2500,0.7500,-0.8750,0.7500,0.8750,0.3750,1.2500,0.0*
%
%ADD55OCTAGOND55*%

%ADD56C,1.5748*%
%ADD57P,7.5768X8X292.5*%
%ADD58R,1.6000X1.6000*%
%ADD59P,1.7318X8X112.5*%
%ADD60R,1.6000X1.6000*%
%ADD61P,1.7318X8X22.5*%
%ADD62C,1.8000*%
%ADD63R,1.8000X1.8000*%
%ADD65R,1.0160X0.8128*%
%ADD66R,1.6000X2.4000*%
%ADD67R,0.9000X1.4000*%
G04:AMPARAMS|DCode=68|XSize=0.8128mm|YSize=1.016mm|CornerRadius=0mm|HoleSize=0mm|Usage=FLASHONLY|Rotation=45.000|XOffset=0mm|YOffset=0mm|HoleType=Round|Shape=Rectangle|*
%AMROTATEDRECTD68*
4,1,4,0.0718,-0.6466,-0.6466,0.0718,-0.0718,0.6466,0.6466,-0.0718,0.0718,-0.6466,0.0*
%
%ADD68ROTATEDRECTD68*%

%ADD69R,1.6510X1.2700*%
%ADD70R,3.8000X2.0000*%
%ADD71R,1.0000X2.2000*%
%ADD72R,0.4000X2.3000*%
%ADD73R,1.2700X1.6510*%
%ADD74R,1.8000X1.5240*%
D47*
X-199080Y-243840D02*
D03*
X-259080D02*
D03*
Y-198840D02*
D03*
X-199080D02*
D03*
D48*
X-161290Y5080D02*
D03*
Y-20320D02*
D03*
Y173990D02*
D03*
Y148590D02*
D03*
Y123190D02*
D03*
X-186690D02*
D03*
Y148590D02*
D03*
D49*
X-161290Y-45720D02*
D03*
X-186690Y173990D02*
D03*
D50*
X247030Y226060D02*
D03*
X233030D02*
D03*
D51*
X-206700Y263500D02*
D03*
Y383900D02*
D03*
D52*
X-159600Y311200D02*
D03*
Y336200D02*
D03*
X-179600D02*
D03*
D53*
Y311200D02*
D03*
D54*
X0Y0D02*
D03*
D55*
X25400D02*
D03*
X50800D02*
D03*
X76200D02*
D03*
X101600D02*
D03*
X127000D02*
D03*
X152400D02*
D03*
X177800D02*
D03*
X203200D02*
D03*
X228600D02*
D03*
X254000D02*
D03*
X279400D02*
D03*
X304800D02*
D03*
X330200D02*
D03*
X355600D02*
D03*
X381000D02*
D03*
X406400D02*
D03*
X431800D02*
D03*
X457200D02*
D03*
X482600D02*
D03*
X0Y152400D02*
D03*
X25400D02*
D03*
X50800D02*
D03*
X76200D02*
D03*
X101600D02*
D03*
X127000D02*
D03*
X152400D02*
D03*
X177800D02*
D03*
X203200D02*
D03*
X228600D02*
D03*
X254000D02*
D03*
X279400D02*
D03*
X304800D02*
D03*
X330200D02*
D03*
X355600D02*
D03*
X381000D02*
D03*
X406400D02*
D03*
X431800D02*
D03*
X457200D02*
D03*
X482600D02*
D03*
D56*
X705800Y385170D02*
D03*
Y358500D02*
D03*
X655000D02*
D03*
Y383900D02*
D03*
X694370Y345800D02*
D03*
X667700D02*
D03*
X694370Y396600D02*
D03*
X667700D02*
D03*
X705800Y-204830D02*
D03*
Y-231500D02*
D03*
X655000D02*
D03*
Y-206100D02*
D03*
X694370Y-244200D02*
D03*
X667700D02*
D03*
X694370Y-193400D02*
D03*
X667700D02*
D03*
X-74200Y385170D02*
D03*
Y358500D02*
D03*
X-125000D02*
D03*
Y383900D02*
D03*
X-85630Y345800D02*
D03*
X-112300D02*
D03*
X-85630Y396600D02*
D03*
X-112300D02*
D03*
X-74200Y-204830D02*
D03*
Y-231500D02*
D03*
X-125000D02*
D03*
Y-206100D02*
D03*
X-85630Y-244200D02*
D03*
X-112300D02*
D03*
X-85630Y-193400D02*
D03*
X-112300D02*
D03*
D57*
X680400Y371200D02*
D03*
X680400Y-218800D02*
D03*
X-99600Y371200D02*
D03*
Y-218800D02*
D03*
D58*
X580390Y88900D02*
D03*
Y330200D02*
D03*
Y-127000D02*
D03*
D59*
X605790Y88900D02*
D03*
X580390Y63500D02*
D03*
X605790D02*
D03*
X580390Y38100D02*
D03*
X605790D02*
D03*
X580390Y12700D02*
D03*
X605790D02*
D03*
X580390Y-12700D02*
D03*
X605790D02*
D03*
Y228600D02*
D03*
X580390D02*
D03*
X605790Y254000D02*
D03*
X580390D02*
D03*
X605790Y279400D02*
D03*
X580390D02*
D03*
X605790Y304800D02*
D03*
X580390D02*
D03*
X605790Y330200D02*
D03*
Y-177800D02*
D03*
X580390D02*
D03*
Y-152400D02*
D03*
X605790D02*
D03*
Y-127000D02*
D03*
D60*
X127000Y304800D02*
D03*
X25400Y-152400D02*
D03*
X457200Y304800D02*
D03*
X355600Y-152400D02*
D03*
D61*
X127000Y279400D02*
D03*
X101600Y304800D02*
D03*
Y279400D02*
D03*
X76200Y304800D02*
D03*
Y279400D02*
D03*
X50800Y304800D02*
D03*
Y279400D02*
D03*
X25400Y304800D02*
D03*
Y279400D02*
D03*
X127000Y-127000D02*
D03*
Y-152400D02*
D03*
X101600Y-127000D02*
D03*
Y-152400D02*
D03*
X76200Y-127000D02*
D03*
Y-152400D02*
D03*
X50800Y-127000D02*
D03*
Y-152400D02*
D03*
X25400Y-127000D02*
D03*
X457200Y279400D02*
D03*
X431800Y304800D02*
D03*
Y279400D02*
D03*
X406400Y304800D02*
D03*
Y279400D02*
D03*
X381000Y304800D02*
D03*
Y279400D02*
D03*
X355600Y304800D02*
D03*
Y279400D02*
D03*
X457200Y-127000D02*
D03*
Y-152400D02*
D03*
X431800Y-127000D02*
D03*
Y-152400D02*
D03*
X406400Y-127000D02*
D03*
Y-152400D02*
D03*
X381000Y-127000D02*
D03*
Y-152400D02*
D03*
X355600Y-127000D02*
D03*
D62*
X241300Y-106950D02*
D03*
Y-58150D02*
D03*
X-114300Y312420D02*
D03*
D63*
X-82550D02*
D03*
D65*
X238760Y101283D02*
D03*
Y84137D02*
D03*
D66*
X227815Y53340D02*
D03*
X257325D02*
D03*
X-109705Y171450D02*
D03*
X-139215D02*
D03*
D67*
X223630Y78758D02*
D03*
X205630D02*
D03*
X214630Y104757D02*
D03*
D68*
X355312Y220916D02*
D03*
X343188Y208793D02*
D03*
X342612Y233074D02*
D03*
X330488Y220951D02*
D03*
D69*
X-233610Y101600D02*
D03*
Y71120D02*
D03*
X-116840Y228600D02*
D03*
Y198120D02*
D03*
X-139700D02*
D03*
Y228600D02*
D03*
X-162560Y198120D02*
D03*
Y228600D02*
D03*
X-185420D02*
D03*
Y198120D02*
D03*
X-159600Y391160D02*
D03*
Y360680D02*
D03*
X-76200Y285750D02*
D03*
Y255270D02*
D03*
X-52070D02*
D03*
Y285750D02*
D03*
X-138430Y71120D02*
D03*
Y101600D02*
D03*
X-162560Y71120D02*
D03*
Y101600D02*
D03*
X627380Y1270D02*
D03*
Y31750D02*
D03*
X185420Y105410D02*
D03*
Y74930D02*
D03*
X299720Y-155100D02*
D03*
Y-124620D02*
D03*
X330200Y-124460D02*
D03*
Y-154940D02*
D03*
X-210170Y71120D02*
D03*
Y101600D02*
D03*
X-186690D02*
D03*
Y71120D02*
D03*
X627380Y332740D02*
D03*
Y302260D02*
D03*
X-99060Y255270D02*
D03*
Y285750D02*
D03*
X627380Y-167640D02*
D03*
Y-137160D02*
D03*
X482600Y-124460D02*
D03*
Y-154940D02*
D03*
X627380Y60960D02*
D03*
Y91440D02*
D03*
X330200Y276860D02*
D03*
Y307340D02*
D03*
X0Y276860D02*
D03*
Y307340D02*
D03*
X152400Y-124460D02*
D03*
Y-154940D02*
D03*
D70*
X-60960Y154440D02*
D03*
D71*
X-37960Y218440D02*
D03*
X-60960D02*
D03*
X-83960Y218710D02*
D03*
D72*
X-205960Y214630D02*
D03*
X-212460D02*
D03*
X-218960D02*
D03*
X-225460D02*
D03*
X-231960D02*
D03*
X-238460D02*
D03*
X-244960D02*
D03*
X-251460D02*
D03*
X-257960D02*
D03*
X-264460D02*
D03*
X-244960Y138430D02*
D03*
X-251460D02*
D03*
X-257960D02*
D03*
X-264460D02*
D03*
X-238460D02*
D03*
X-231960D02*
D03*
X-225460D02*
D03*
X-218960D02*
D03*
X-212460D02*
D03*
X-205960D02*
D03*
D73*
X-205740Y345800D02*
D03*
X-236220D02*
D03*
X-205740Y322580D02*
D03*
X-236220D02*
D03*
Y299720D02*
D03*
X-205740D02*
D03*
X276904Y127000D02*
D03*
X307384D02*
D03*
X256496D02*
D03*
X226016D02*
D03*
X203295D02*
D03*
X172815D02*
D03*
X288290Y81280D02*
D03*
X257810D02*
D03*
Y104458D02*
D03*
X288290D02*
D03*
X426720Y254000D02*
D03*
X457200D02*
D03*
X426720Y330200D02*
D03*
X457200D02*
D03*
X-177800Y287020D02*
D03*
X-147320D02*
D03*
X256540Y25400D02*
D03*
X226060D02*
D03*
Y-127000D02*
D03*
X256540D02*
D03*
X176530Y48260D02*
D03*
X207010D02*
D03*
X226060Y-78740D02*
D03*
X256540D02*
D03*
X176530Y25400D02*
D03*
X207010D02*
D03*
D74*
X-123190Y285750D02*
D03*
Y255270D02*
D03*
M02*
