M48
;Layer_Color=9474304
;FILE_FORMAT=4:4
METRIC,LZ
;TYPE=PLATED
T1F00S00C0.5000
T2F00S00C0.8000
T3F00S00C0.8890
T4F00S00C0.9144
T5F00S00C0.9500
T6F00S00C1.0000
T7F00S00C2.3000
T8F00S00C3.2000
%
T01
X0062865Y-0001651
X0028829Y0006223
X001651Y0007874
X-0003302Y0001143
X-0016256Y0008001
X-0017907
X-0011938Y000889
X-0021896Y0016054
X-0024496Y0016129
X-0022546Y0019431
X-0021971Y0023749
X-0024892Y00284387
X0023303Y0022606
X0024703
X0042672Y0023495
X0015494Y00127
T02
X004318Y0
X004572
X004826
X004064
X00381
X003556
X003302
X003048
X002794
X00254
X002286
X002032
X001778
X001524
X00127
X001016
X000762
X000508
X002413Y-0005815
Y-0010695
X000254Y0
X0
Y001524
X000254
X000508
X000762
X001016
X00127
X001524
X001778
X002032
X002286
X00254
X002794
X003048
X003302
X003556
X00381
X004064
X004318
X004572
X004826
T03
X-001143Y0031242
X-0008255
T04
X00655Y-002315
Y-002061
X006677Y-001934
X0069437
X007058Y-0020483
Y-002315
X0069437Y-002442
X006677
X-0008563
X-000742Y-002315
Y-0020483
X-0008563Y-001934
X-001123
X-00125Y-002061
Y-002315
X-001123Y-002442
Y003458
X-00125Y003585
Y003839
X-001123Y003966
X-0008563
X-000742Y0038517
Y003585
X-0008563Y003458
X00655Y003585
Y003839
X006677Y003966
X0069437
X007058Y0038517
Y003585
X0069437Y003458
X006677
T05
X-001796Y003112
X-001596
Y003362
X-001796
T06
X004318Y-001524
X004572
Y-00127
X004318
X0058039
Y-001524
Y-001778
X0060579
Y-001524
Y-00127
Y-000127
Y000127
Y000381
Y000635
X0058039
Y000381
Y000127
Y-000127
X004064Y-00127
Y-001524
X00381
Y-00127
X003556
Y-001524
X00127
Y-00127
X001016
Y-001524
X000762
Y-00127
X000508
Y-001524
X000254
Y-00127
X-0016129Y-0004572
Y-0002032
Y0000508
X-0019908Y-0019884
Y-0024384
X-0025908
Y-0019884
X-0018669Y0012319
X-0016129
Y0014859
Y0017399
X-0018669
Y0014859
X000254Y002794
Y003048
X000508
X000762
X001016
X00127
Y002794
X001016
X000762
X000508
X003556
X00381
X004064
Y003048
X00381
X003556
X004318
X004572
Y002794
X004318
X0058039
Y00254
Y002286
X0060579
Y00254
Y002794
Y003048
X0058039
Y003302
X0060579
Y000889
X0058039
T07
X-002067Y002635
Y003839
T08
X006804Y-002188
X-000996
Y003712
X006804
M30
